<svg xmlns="http://www.w3.org/2000/svg" viewBox="0 0 1200 620" role="img" aria-labelledby="title desc">
  <title id="title">Lumen Bank dashboard preview</title>
  <desc id="desc">Dark banking dashboard with glass panels, a glowing balance chart and a colorful card.</desc>
  <defs>
    <linearGradient id="bg" x1="0" y1="0" x2="1" y2="1"><stop stop-color="#08090c"/><stop offset="1" stop-color="#12141b"/></linearGradient>
    <radialGradient id="lime"><stop stop-color="#b8ff38" stop-opacity=".38"/><stop offset="1" stop-color="#b8ff38" stop-opacity="0"/></radialGradient>
    <radialGradient id="orange"><stop stop-color="#ff762b" stop-opacity=".36"/><stop offset="1" stop-color="#ff762b" stop-opacity="0"/></radialGradient>
    <linearGradient id="card" x1="0" y1="0" x2="1" y2="1"><stop stop-color="#2944ff"/><stop offset=".45" stop-color="#35ef91"/><stop offset=".72" stop-color="#ff3f9d"/><stop offset="1" stop-color="#ff7138"/></linearGradient>
    <filter id="blur"><feGaussianBlur stdDeviation="34"/></filter>
  </defs>
  <rect width="1200" height="620" rx="36" fill="url(#bg)"/>
  <g opacity=".13" stroke="#fff"><path d="M0 80h1200M0 160h1200M0 240h1200M0 320h1200M0 400h1200M0 480h1200M0 560h1200"/><path d="M80 0v620M160 0v620M240 0v620M320 0v620M400 0v620M480 0v620M560 0v620M640 0v620M720 0v620M800 0v620M880 0v620M960 0v620M1040 0v620M1120 0v620"/></g>
  <circle cx="770" cy="140" r="240" fill="url(#orange)" filter="url(#blur)"/><circle cx="520" cy="420" r="260" fill="url(#lime)" filter="url(#blur)"/>
  <rect x="24" y="24" width="204" height="572" rx="25" fill="#111318" fill-opacity=".83" stroke="#fff" stroke-opacity=".12"/>
  <rect x="252" y="24" width="924" height="64" rx="20" fill="#111318" fill-opacity=".72" stroke="#fff" stroke-opacity=".12"/>
  <circle cx="64" cy="65" r="19" fill="#b8ff38"/><text x="96" y="72" fill="#fff" font-family="Arial,sans-serif" font-weight="700" font-size="20">Lumen Bank</text>
  <g fill="#a8abb4" font-family="Arial,sans-serif" font-size="14"><text x="52" y="142">Главная</text><text x="52" y="190">Платежи</text><text x="52" y="238">Карты</text><text x="52" y="286">История</text><text x="52" y="334">Аналитика</text></g>
  <rect x="40" y="113" width="172" height="46" rx="14" fill="#b8ff38" fill-opacity=".13" stroke="#b8ff38" stroke-opacity=".3"/>
  <rect x="276" y="112" width="578" height="300" rx="25" fill="#12151a" fill-opacity=".74" stroke="#b8ff38" stroke-opacity=".44"/>
  <text x="310" y="160" fill="#a8abb4" font-family="Arial,sans-serif" font-size="14">Общий баланс</text>
  <text x="306" y="226" fill="#fff" font-family="Arial Narrow,Arial,sans-serif" font-weight="700" font-size="57">728 120 ₽</text>
  <path d="M310 342 L355 326 L400 334 L445 300 L490 315 L535 265 L580 284 L625 239 L670 257 L715 204 L760 218 L818 166" fill="none" stroke="#b8ff38" stroke-width="5" stroke-linecap="round" stroke-linejoin="round"/>
  <path d="M310 342 L355 326 L400 334 L445 300 L490 315 L535 265 L580 284 L625 239 L670 257 L715 204 L760 218 L818 166 L818 382 L310 382Z" fill="#b8ff38" opacity=".08"/>
  <rect x="878" y="112" width="274" height="300" rx="25" fill="#12151a" fill-opacity=".74" stroke="#fff" stroke-opacity=".12"/>
  <text x="906" y="154" fill="#fff" font-family="Arial,sans-serif" font-weight="700" font-size="18">Lumen Black</text>
  <rect x="906" y="178" width="218" height="132" rx="19" fill="url(#card)"/>
  <text x="924" y="209" fill="#fff" font-family="Arial,sans-serif" font-weight="800" font-size="12">LUMEN</text><text x="924" y="281" fill="#fff" font-family="monospace" font-size="13">5478 •••• 0932</text>
  <text x="906" y="346" fill="#a8abb4" font-family="Arial,sans-serif" font-size="12">Доступно</text><text x="906" y="380" fill="#fff" font-family="Arial Narrow,Arial,sans-serif" font-weight="700" font-size="28">326 840 ₽</text>
  <g fill="#12151a" fill-opacity=".78" stroke="#fff" stroke-opacity=".12"><rect x="276" y="436" width="282" height="136" rx="24"/><rect x="576" y="436" width="282" height="136" rx="24"/><rect x="878" y="436" width="274" height="136" rx="24"/></g>
  <g fill="#fff" font-family="Arial,sans-serif" font-weight="700" font-size="17"><text x="302" y="474">Финансовый пульс</text><text x="602" y="474">Предстоящие</text><text x="904" y="474">Накопления</text></g>
  <g fill="#a8abb4" font-family="monospace" font-size="12"><text x="302" y="528">+ 48 200 ₽</text><text x="602" y="528">3 события</text><text x="904" y="528">12,8% годовых</text></g>
</svg>
